<svg xmlns="http://www.w3.org/2000/svg" xmlns:xlink="http://www.w3.org/1999/xlink" width="1080" zoomAndPan="magnify" viewBox="0 0 810 809.999993" height="1080" preserveAspectRatio="xMidYMid meet" version="1.0"><defs><g/><clipPath id="60fefdfab8"><rect x="0" width="482" y="0" height="685"/></clipPath></defs><g transform="matrix(1, 0, 0, 1, 148, 125)"><g clip-path="url(#60fefdfab8)"><g fill="#000000" fill-opacity="1"><g transform="translate(0.77505, 553.186263)"><g><path d="M 333.5625 -253.625 L 335.09375 -253.625 L 335.09375 -537.984375 L 468.828125 -537.984375 L 468.828125 -66.859375 C 468.828125 -56.097656 466.90625 -46.109375 463.0625 -36.890625 C 459.21875 -27.671875 453.960938 -19.601562 447.296875 -12.6875 C 440.640625 -5.769531 433.082031 -0.390625 424.625 3.453125 C 416.175781 7.296875 407.335938 9.21875 398.109375 9.21875 C 376.585938 9.21875 358.910156 2.046875 345.078125 -12.296875 C 331.242188 -26.640625 317.15625 -47.644531 302.8125 -75.3125 L 178.3125 -315.109375 L 176.765625 -315.109375 L 176.765625 0 L 43.046875 0 L 43.046875 -475.734375 C 43.046875 -485.472656 44.960938 -494.691406 48.796875 -503.390625 C 52.640625 -512.097656 58.019531 -519.65625 64.9375 -526.0625 C 71.851562 -532.46875 80.179688 -537.59375 89.921875 -541.4375 C 99.660156 -545.28125 110.421875 -547.203125 122.203125 -547.203125 C 146.796875 -547.203125 166.007812 -542.207031 179.84375 -532.21875 C 193.675781 -522.226562 204.945312 -508.78125 213.65625 -491.875 Z M 333.5625 -253.625 "/></g></g></g></g></g></svg>